<svg width="900" height="292" viewBox="0 0 900 292" xmlns="http://www.w3.org/2000/svg">
    <style>
      text { font-family: ui-sans-serif, system-ui, -apple-system, Segoe UI, Roboto, Ubuntu, Cantarell, Noto Sans, Arial, sans-serif; }
    </style>
    <defs>
      <filter id="cardShadow" x="-20%" y="-20%" width="140%" height="140%">
        <feDropShadow dx="0" dy="6" stdDeviation="8" flood-color="#000000" flood-opacity="0.35"/>
      </filter>
    </defs>
    <rect width="100%" height="100%" fill="#0b0b0d"/>
    <g filter="url(#cardShadow)">
      <rect x="20" y="12" width="860" height="260" rx="16" fill="#0d0f14" stroke="#1f2430" />
    </g>
    <text x="28" y="28" font-size="18" font-weight="700" fill="#f1f5f9">Languages usage</text>
    <text x="28" y="48" font-size="12" fill="#9aa4b2">Total analyzed: 4 languages across 2 repositories</text>
    
    <defs>
      <linearGradient id="gPython" x1="0" y1="0" x2="1" y2="0">
        <stop offset="0" stop-color="#3776AB" stop-opacity="0.9"/>
        <stop offset="1" stop-color="#3776AB" stop-opacity="0.55"/>
      </linearGradient>
    </defs>

    <g transform="translate(0, 64)">
      <rect x="28" y="0" width="844" height="40" rx="10" fill="#0f1115" stroke="#1f2430" stroke-width="1"/>
      <rect x="28" y="8" width="48" height="24" rx="12" fill="#3776AB" />
      <text x="52" y="25" text-anchor="middle" font-size="12" font-weight="700" fill="#0b0b0d">Py</text>

      <text x="92" y="26" font-size="14" fill="#e5e7eb">Python</text>
      <text x="811" y="26" font-size="12" fill="#cbd5e1">98.8%</text>
      <text x="868" y="26" font-size="12" fill="#94a3b8" text-anchor="end">282KB</text>

      <rect x="248" y="10" width="560" height="8" rx="4" fill="#151922"/>
      <rect x="248" y="10" width="553" height="8" rx="4" fill="url(#gPython)"/>
    </g>
  
    <defs>
      <linearGradient id="gDockerfile" x1="0" y1="0" x2="1" y2="0">
        <stop offset="0" stop-color="#2496ED" stop-opacity="0.9"/>
        <stop offset="1" stop-color="#2496ED" stop-opacity="0.55"/>
      </linearGradient>
    </defs>

    <g transform="translate(0, 114)">
      <rect x="28" y="0" width="844" height="40" rx="10" fill="#0f1115" stroke="#1f2430" stroke-width="1"/>
      <rect x="28" y="8" width="48" height="24" rx="12" fill="#2496ED" />
      <text x="52" y="25" text-anchor="middle" font-size="12" font-weight="700" fill="#0b0b0d">Dkr</text>

      <text x="92" y="26" font-size="14" fill="#e5e7eb">Dockerfile</text>
      <text x="262" y="26" font-size="12" fill="#cbd5e1">0.4%</text>
      <text x="868" y="26" font-size="12" fill="#94a3b8" text-anchor="end">1.1KB</text>

      <rect x="248" y="10" width="560" height="8" rx="4" fill="#151922"/>
      <rect x="248" y="10" width="4" height="8" rx="4" fill="url(#gDockerfile)"/>
    </g>
  
    <defs>
      <linearGradient id="gShell" x1="0" y1="0" x2="1" y2="0">
        <stop offset="0" stop-color="#4EAA25" stop-opacity="0.9"/>
        <stop offset="1" stop-color="#4EAA25" stop-opacity="0.55"/>
      </linearGradient>
    </defs>

    <g transform="translate(0, 164)">
      <rect x="28" y="0" width="844" height="40" rx="10" fill="#0f1115" stroke="#1f2430" stroke-width="1"/>
      <rect x="28" y="8" width="48" height="24" rx="12" fill="#4EAA25" />
      <text x="52" y="25" text-anchor="middle" font-size="12" font-weight="700" fill="#0b0b0d">Sh</text>

      <text x="92" y="26" font-size="14" fill="#e5e7eb">Shell</text>
      <text x="262" y="26" font-size="12" fill="#cbd5e1">0.4%</text>
      <text x="868" y="26" font-size="12" fill="#94a3b8" text-anchor="end">1.1KB</text>

      <rect x="248" y="10" width="560" height="8" rx="4" fill="#151922"/>
      <rect x="248" y="10" width="4" height="8" rx="4" fill="url(#gShell)"/>
    </g>
  
    <defs>
      <linearGradient id="gPowerShell" x1="0" y1="0" x2="1" y2="0">
        <stop offset="0" stop-color="#9CA3AF" stop-opacity="0.9"/>
        <stop offset="1" stop-color="#9CA3AF" stop-opacity="0.55"/>
      </linearGradient>
    </defs>

    <g transform="translate(0, 214)">
      <rect x="28" y="0" width="844" height="40" rx="10" fill="#0f1115" stroke="#1f2430" stroke-width="1"/>
      <rect x="28" y="8" width="48" height="24" rx="12" fill="#9CA3AF" />
      <text x="52" y="25" text-anchor="middle" font-size="12" font-weight="700" fill="#0b0b0d">Po</text>

      <text x="92" y="26" font-size="14" fill="#e5e7eb">PowerShell</text>
      <text x="262" y="26" font-size="12" fill="#cbd5e1">0.4%</text>
      <text x="868" y="26" font-size="12" fill="#94a3b8" text-anchor="end">1.0KB</text>

      <rect x="248" y="10" width="560" height="8" rx="4" fill="#151922"/>
      <rect x="248" y="10" width="4" height="8" rx="4" fill="url(#gPowerShell)"/>
    </g>
  
  </svg>