<svg width="980" height="358" viewBox="0 0 980 358" xmlns="http://www.w3.org/2000/svg">
    <style>text{font-family:ui-sans-serif,system-ui,-apple-system,Segoe UI,Roboto,Ubuntu,Cantarell,Noto Sans,Arial,sans-serif}</style>
    <rect width="100%" height="100%" fill="#0b0b0d"/>
    <g>
      <rect x="16" y="16" width="948" height="326" rx="20" fill="#0d0f14" stroke="#1f2430"/>
      <rect x="16" y="16" width="948" height="52" rx="20" fill="#10131a"/>
      <text x="24" y="50" font-size="22" font-weight="900" fill="#F3F4F6">Spooky-Development-INC/Spooky-Development-INC — Latest activity</text>
    </g>
    
    <g>
      <rect x="18" y="76" width="944" height="78" rx="16" fill="#0f1115" stroke="#1f2430"/>
      <circle cx="70" cy="115" r="22" fill="#ef4444"/><text x="70" y="122" text-anchor="middle" font-size="16" font-weight="800" fill="#0b0b0d">C</text>
      <text x="116" y="103" font-size="18" font-weight="800" fill="#F8FAFC">Commit</text>
      <a href="https://github.com/Spooky-Development-INC/Spooky-Development-INC/commit/ff9b01bca6e0461967cb1daa8b31f77caac7cadc" target="_blank" rel="noopener">
        <text x="254" y="123" font-size="16" fill="#E5E7EB">(redacted)</text>
      </a>
      <text x="956" y="123" font-size="13" fill="#B6C2CF" text-anchor="end">
        ff9b01b • @xl-spooky
      </text>
    </g>
    
    <g>
      <rect x="18" y="166" width="944" height="78" rx="16" fill="#0f1115" stroke="#1f2430"/>
      <circle cx="70" cy="205" r="22" fill="#f59e0b"/><text x="70" y="212" text-anchor="middle" font-size="16" font-weight="800" fill="#0b0b0d">I</text>
      <text x="116" y="193" font-size="18" font-weight="800" fill="#F8FAFC">Issue</text>
      <text x="254" y="213" font-size="15" fill="#C8D0DA" font-style="italic">None</text>
    </g>
    
    <g>
      <rect x="18" y="256" width="944" height="78" rx="16" fill="#0f1115" stroke="#1f2430"/>
      <circle cx="70" cy="295" r="22" fill="#3b82f6"/><text x="70" y="302" text-anchor="middle" font-size="16" font-weight="800" fill="#0b0b0d">PR</text>
      <text x="116" y="283" font-size="18" font-weight="800" fill="#F8FAFC">Pull Request</text>
      <text x="254" y="303" font-size="15" fill="#C8D0DA" font-style="italic">None</text>
    </g>
  </svg>