<svg width="980" height="370" viewBox="0 0 980 370" xmlns="http://www.w3.org/2000/svg">
    <style>text{font-family:ui-sans-serif,system-ui,-apple-system,Segoe UI,Roboto,Ubuntu,Cantarell,Noto Sans,Arial,sans-serif}</style>
    <rect width="100%" height="100%" fill="#0b0b0d"/>
    <g>
      <rect x="16" y="16" width="948" height="338" rx="20" fill="#0d0f14" stroke="#1f2430"/>
      <rect x="16" y="16" width="948" height="58" rx="20" fill="#10131a"/>
      <text x="24" y="48" font-size="22" font-weight="900" fill="#F3F4F6">Spooky-Development-INC/Spooky-Development-INC — Latest activity</text>
      <text x="24" y="68" font-size="14" fill="#D0D7E2">Updated 0m ago</text>
    </g>
    
    <g>
      <rect x="18" y="88" width="944" height="78" rx="16" fill="#0f1115" stroke="#1f2430"/>
      <circle cx="70" cy="127" r="22" fill="#ef4444"/><text x="70" y="134" text-anchor="middle" font-size="16" font-weight="800" fill="#0b0b0d">C</text>
      <text x="116" y="115" font-size="18" font-weight="800" fill="#F8FAFC">Commit</text>
      <a href="https://github.com/Spooky-Development-INC/Spooky-Development-INC/commit/733ee893e9e04f3cddc15804249717f8e5c51f81" target="_blank" rel="noopener">
        <text x="254" y="135" font-size="16" fill="#E5E7EB">docs: improved texting label</text>
      </a>
      <text x="956" y="135" font-size="13" fill="#B6C2CF" text-anchor="end">733ee89 • @xl-spooky • 0m ago</text>
    </g>
    
    <g>
      <rect x="18" y="178" width="944" height="78" rx="16" fill="#0f1115" stroke="#1f2430"/>
      <circle cx="70" cy="217" r="22" fill="#f59e0b"/><text x="70" y="224" text-anchor="middle" font-size="16" font-weight="800" fill="#0b0b0d">I</text>
      <text x="116" y="205" font-size="18" font-weight="800" fill="#F8FAFC">Issue</text>
      <text x="254" y="225" font-size="15" fill="#C8D0DA" font-style="italic">None</text>
    </g>
    
    <g>
      <rect x="18" y="268" width="944" height="78" rx="16" fill="#0f1115" stroke="#1f2430"/>
      <circle cx="70" cy="307" r="22" fill="#3b82f6"/><text x="70" y="314" text-anchor="middle" font-size="16" font-weight="800" fill="#0b0b0d">PR</text>
      <text x="116" y="295" font-size="18" font-weight="800" fill="#F8FAFC">Pull Request</text>
      <text x="254" y="315" font-size="15" fill="#C8D0DA" font-style="italic">None</text>
    </g>
  </svg>